<svg xmlns="http://www.w3.org/2000/svg" viewBox="0 0 1200 760" width="1200" height="760" fill="none">
  <defs>
    <radialGradient id="diamond-body" cx="0" cy="0" r="1" gradientTransform="matrix(154 0 0 154 570 216)" gradientUnits="userSpaceOnUse">
      <stop offset="0" stop-color="#ffffff"/>
      <stop offset="0.22" stop-color="#f2fbff"/>
      <stop offset="0.48" stop-color="#c8dbe3" stop-opacity="0.82"/>
      <stop offset="0.72" stop-color="#ffffff" stop-opacity="0.76"/>
      <stop offset="1" stop-color="#a8bec9" stop-opacity="0.44"/>
    </radialGradient>
    <linearGradient id="diamond-flash" x1="482" y1="146" x2="710" y2="392" gradientUnits="userSpaceOnUse">
      <stop offset="0" stop-color="#ffffff" stop-opacity="0.98"/>
      <stop offset="0.34" stop-color="#b8d8e5" stop-opacity="0.44"/>
      <stop offset="0.58" stop-color="#ffffff" stop-opacity="0.92"/>
      <stop offset="1" stop-color="#879daa" stop-opacity="0.42"/>
    </linearGradient>
    <filter id="diamond-shadow" x="390" y="70" width="420" height="420" filterUnits="userSpaceOnUse" color-interpolation-filters="sRGB">
      <feDropShadow dx="0" dy="18" stdDeviation="14" flood-color="#23313a" flood-opacity="0.18"/>
    </filter>
  </defs>
  <g filter="url(#diamond-shadow)">
    <g fill="url(#diamond-body)" stroke="#ffffff" stroke-opacity="0.82" stroke-width="7">
      <path d="M600 388C528 326 488 284 488 228C488 184 520 154 560 154C584 154 600 170 600 170C600 170 616 154 640 154C680 154 712 184 712 228C712 284 672 326 600 388Z"/>
    </g>
    <g fill="url(#diamond-flash)" opacity="0.36" stroke="#ffffff" stroke-opacity="0.62" stroke-width="3">
      <path d="M600 320C554 282 528 252 528 218C528 194 546 178 570 178C588 178 600 194 600 194C600 194 612 178 630 178C654 178 672 194 672 218C672 252 646 282 600 320Z"/>
    </g>
    <path d="M600 178V382M526 220L674 338M674 220L526 338M488 258H712" stroke="#708b9a" stroke-opacity="0.34" stroke-width="3" stroke-linecap="round"/>
    <path d="M600 178V382M526 220L674 338M674 220L526 338M488 258H712" stroke="#ffffff" stroke-opacity="0.38" stroke-width="1.2" stroke-linecap="round"/>
    <circle cx="560" cy="210" r="18" fill="#ffffff" opacity="0.72"/>
    <path d="M642 184C678 214 690 258 676 304" stroke="#ffffff" stroke-opacity="0.54" stroke-width="12" stroke-linecap="round"/>
  </g></svg>
